<?xml version="1.0" standalone="no"?>
<!DOCTYPE svg PUBLIC "-//W3C//DTD SVG 20010904//EN"
 "http://www.w3.org/TR/2001/REC-SVG-20010904/DTD/svg10.dtd">
<svg version="1.0" xmlns="http://www.w3.org/2000/svg"
 width="512.000000pt" height="512.000000pt" viewBox="0 0 512.000000 512.000000"
 preserveAspectRatio="xMidYMid meet">

<g transform="translate(0.000000,512.000000) scale(0.100000,-0.100000)"
fill="#000000" stroke="none">
<path d="M1905 4251 c-33 -5 -87 -15 -120 -24 -33 -8 -80 -18 -104 -21 -24 -4
-57 -16 -72 -27 l-29 -20 0 -285 c0 -220 3 -284 13 -284 6 0 62 15 124 34 153
48 221 59 306 54 131 -8 179 -67 262 -322 31 -93 56 -179 57 -190 0 -12 -234
-570 -522 -1241 -287 -671 -526 -1230 -531 -1242 l-9 -23 353 0 352 0 289 703
c397 961 388 941 396 926 4 -8 96 -257 205 -554 228 -624 265 -717 335 -820
103 -152 186 -213 351 -256 71 -18 102 -21 204 -16 66 2 153 12 193 22 l72 17
0 277 0 278 -42 -8 c-24 -4 -79 -8 -123 -8 l-80 -1 -37 58 c-41 63 -58 103
-58 133 0 17 -239 664 -744 2018 -110 294 -185 457 -244 531 -76 94 -168 182
-226 214 -116 65 -173 78 -351 82 -88 1 -187 -1 -220 -5z"/>
</g>
</svg>
